<svg xmlns="http://www.w3.org/2000/svg" xmlns:xlink="http://www.w3.org/1999/xlink" version="1.1" width="375pt" height="375pt" viewBox="0 0 375 375">
<defs>
<clipPath id="clip_0">
<path transform="matrix(.24,0,0,.24,0,0)" d="M0 0H1562.5V1562.5H0Z" fill-rule="evenodd"/>
</clipPath>
<clipPath id="clip_1">
<path transform="matrix(.24,0,0,.24,0,0)" d="M0 0H1562.5V1593.75H0Z"/>
</clipPath>
<clipPath id="clip_2">
<path transform="matrix(.24,0,0,.24,0,0)" d="M0 0H1562.5V1562.5H0Z"/>
</clipPath>
<clipPath id="clip_3">
<path transform="matrix(.24,0,0,.24,0,0)" d="M0 0H1562.5V1562.5H0Z"/>
</clipPath>
<clipPath id="clip_4">
<path transform="matrix(.24,0,0,.24,0,0)" d="M1130.7107 896.4622H1132.9324V904.2383H1130.7107Z"/>
</clipPath>
<clipPath id="clip_5">
<path transform="matrix(.24,0,0,.24,0,0)" d="M1132.7658 903.2052 1131.066 897.562 1132.7658 903.2052Z"/>
</clipPath>
<clipPath id="clip_6">
<path transform="matrix(.24,0,0,.24,0,0)" d="M0 0H1562.5V1593.75H0Z"/>
</clipPath>
<clipPath id="clip_7">
<path transform="matrix(.24,0,0,.24,0,0)" d="M0 0H1562.5V1562.5H0Z"/>
</clipPath>
<clipPath id="clip_8">
<path transform="matrix(.24,0,0,.24,0,0)" d="M0 0H1562.5V1562.5H0Z"/>
</clipPath>
<clipPath id="clip_9">
<path transform="matrix(.24,0,0,.24,0,0)" d="M1130.7107 896.4622H1132.9324V904.2383H1130.7107Z"/>
</clipPath>
<clipPath id="clip_10">
<path transform="matrix(.24,0,0,.24,0,0)" d="M1132.7658 903.2052 1131.066 897.562 1132.7658 903.2052Z"/>
</clipPath>
<clipPath id="clip_11">
<path transform="matrix(.24,0,0,.24,0,0)" d="M0 0H1562.5V1593.75H0Z"/>
</clipPath>
<clipPath id="clip_12">
<path transform="matrix(.24,0,0,.24,0,0)" d="M0 0H1562.5V1562.5H0Z"/>
</clipPath>
<clipPath id="clip_13">
<path transform="matrix(.24,0,0,.24,0,0)" d="M0 0H1562.5V1562.5H0Z"/>
</clipPath>
<clipPath id="clip_14">
<path transform="matrix(.24,0,0,.24,0,0)" d="M159.80872 608.7464H586.3835V929.7883H159.80872Z"/>
</clipPath>
<clipPath id="clip_15">
<path transform="matrix(.24,0,0,.24,0,0)" d="M428.73966 713.8126 450.2128 622.8989 477.69578 713.8126H428.73966ZM560.06698 906.5267 475.95173 629.16427C470.8195 611.3347 489.03779 609.9906 489.03779 609.9906H449.86845L449.77958 609.67959 449.71293 609.9906H428.21757C428.21757 609.9906 446.66914 611.22366 442.33674 629.68637L442.3145 629.80856 414.76493 743.3063 380.31678 629.69747C380.30564 629.67526 380.30564 629.6308 380.29457 629.6086 374.91795 611.53469 393.20289 609.8462 393.20289 609.8462H354.04466L353.9558 609.5351 353.88917 609.8462H332.37153C332.37153 609.8462 350.97865 610.8126 346.54627 629.37527L319.0633 742.6842 284.5596 629.80856C284.51518 629.67526 284.48185 629.54196 284.43745 629.4086L284.34858 629.0865C279.6829 611.5903 297.36799 609.8462 297.36799 609.8462H258.20976L258.12089 609.53518 258.05424 609.8462H236.53664C236.53664 609.8462 255.18817 610.8126 250.7558 629.37539L183.9924 907.2377C175.72751 923.37869 159.80872 929.7883 159.80872 929.7883H186.09195L258.543 622.8989 308.33229 787.6079 282.29347 896.7066C277.0057 920.63479 254.29947 929.7883 254.29947 929.7883H281.91578L312.34254 800.905 351.323 929.7883H395.55793C395.55793 929.7883 372.77394 920.45706 365.48664 896.7066L323.0069 755.77029 354.3779 622.8989 447.15794 929.7883H490.0598C490.0598 929.7883 473.66334 923.06759 464.25425 906.53787L418.7085 756.3035 427.7954 717.83407H478.90666L542.99288 929.7883H585.8947C585.8947 929.7883 569.4982 923.06759 560.07809 906.5267"/>
</clipPath>
<clipPath id="clip_16">
<path transform="matrix(.24,0,0,.24,0,0)" d="M0 0H1562.5V1593.75H0Z"/>
</clipPath>
<clipPath id="clip_17">
<path transform="matrix(.24,0,0,.24,0,0)" d="M0 0H1562.5V1562.5H0Z"/>
</clipPath>
<clipPath id="clip_18">
<path transform="matrix(.24,0,0,.24,0,0)" d="M0 0H1562.5V1562.5H0Z"/>
</clipPath>
<clipPath id="clip_19">
<path transform="matrix(.24,0,0,.24,0,0)" d="M523.0638 608.7464H681.91848V824.2555H523.0638Z"/>
</clipPath>
<clipPath id="clip_20">
<path transform="matrix(.24,0,0,.24,0,0)" d="M681.0075 609.8462C679.2746 609.8462 662.25607 610.32388 662.25607 629.3753V763.4464C662.25607 796.72817 635.38406 823.81118 602.35787 823.81118 569.3316 823.81118 542.45968 796.72817 542.45968 763.4464V629.3753C542.45968 610.32388 525.4411 609.8462 523.7081 609.8462H567.8764C566.14346 609.8462 549.1249 610.32388 549.1249 629.3753V715.82339L551.18 762.30227C552.2131 785.83047 571.3423 804.2821 594.72616 804.2821 618.75436 804.2821 638.3056 784.5752 638.3056 760.3471V629.3753C638.3056 610.32388 621.28707 609.8462 619.5541 609.8462H681.0075Z"/>
</clipPath>
<clipPath id="clip_21">
<path transform="matrix(.24,0,0,.24,0,0)" d="M0 0H1562.5V1593.75H0Z"/>
</clipPath>
<clipPath id="clip_22">
<path transform="matrix(.24,0,0,.24,0,0)" d="M0 0H1562.5V1562.5H0Z"/>
</clipPath>
<clipPath id="clip_23">
<path transform="matrix(.24,0,0,.24,0,0)" d="M0 0H1562.5V1562.5H0Z"/>
</clipPath>
<clipPath id="clip_24">
<path transform="matrix(.24,0,0,.24,0,0)" d="M584.16177 603.192H1359.5503V984.22109H584.16177Z"/>
</clipPath>
<clipPath id="clip_25">
<path transform="matrix(.24,0,0,.24,0,0)" d="M1306.4061 609.8462V650.2819C1306.4061 650.2819 1306.3839 650.082 1306.3395 649.71536 1304.8287 637.8068 1294.6309 628.93099 1282.6668 628.93099H1231.2666V713.21279H1271.358C1283.3333 713.21279 1293.5309 704.3369 1295.0308 692.4284L1295.0974 691.85079V738.85177C1295.0974 738.85177 1295.0752 738.6518 1295.0308 738.2741 1293.52 726.36557 1283.3222 717.4897 1271.358 717.4897H1231.2666V909.3261H1335.2108C1347.1862 909.3261 1357.3838 900.45028 1358.8837 888.5417L1358.9503 887.96408V929.1218L1236.4878 929.42178 1236.61 929.79946H1212.4819L1212.0598 928.3775 1119.7019 622.91006 1088.3309 755.7814 1131.066 897.56198C1131.5105 899.5504 1132.077 901.4389 1132.7658 903.20516L1132.7769 903.22738C1140.3086 922.7898 1160.8709 929.7883 1160.8709 929.7883H1116.6471L1116.225 928.3664 1077.6776 800.88278 1047.2509 929.7883H1019.63467C1019.63467 929.7883 1042.3408 920.6459 1047.6286 896.7066L1073.6563 787.5968 1023.86709 622.8989 959.2254 896.7066C952.63796 924.6117 985.68637 929.7883 985.68637 929.7883H905.69247C905.69247 929.7883 925.78817 919.6461 925.78817 894.6848V717.83407H853.91476V770.9115C861.70199 778.621 868.46719 787.4413 873.82156 797.65017 923.99966 896.25119 843.47256 979.04446 744.205 975.4563 675.2977 970.8017 626.3971 938.86416 609.0453 870.57888L609.0342 870.5344C607.69 863.85806 600.7804 834.09786 584.76168 834.09786H640.5163C640.5163 834.09786 623.50888 839.3523 620.82058 854.3379 620.2207 857.67056 621.1761 860.96987 621.48709 864.3358 627.5191 929.7661 709.55697 983.92117 778.3866 967.7468 861.7353 946.21817 893.15078 851.8163 846.2053 779.26528 825.3098 749.71609 783.45217 732.2976 760.34609 725.499 742.3388 720.2002 715.9223 713.32388 702.2252 699.5824 676.042 675.65426 683.41818 633.1745 716.2111 617.52236 741.78347 605.31387 767.0335 608.97976 779.7974 620.6772 785.02969 625.5762 788.7955 630.8639 791.195 637.4958 792.03927 639.35098 794.6943 648.81558 795.56069 656.114H795.58297C796.90487 668.9446 812.1571 673.2881 812.1571 673.2881H776.96469C781.40817 673.2881 790.76168 662.86807 791.406 661.04629 792.228 658.72457 792.0281 656.0696 791.817 653.6034 787.39578 603.95858 717.24417 604.4918 706.8353 653.7811 703.4693 669.72219 705.8911 684.1079 717.3108 695.5166 729.45266 707.92507 745.9713 713.0017 762.2011 718.0118 792.89456 728.56509 825.6652 745.11709 849.9267 767.1234V631.3971C849.9267 611.3236 831.03079 609.8573 831.03079 609.8573H872.8218C872.8218 609.8573 853.9258 611.3347 853.9258 631.3971V713.8127H925.79928V629.3753C925.79928 610.32388 908.78067 609.8462 907.0477 609.8462H968.51229C966.7793 609.8462 949.76077 610.32388 949.76077 629.3753V905.3492L1015.90206 629.3864C1020.33438 610.8237 1001.68289 609.8573 1001.68289 609.8573H1023.1782L1023.2449 609.54629 1023.33377 609.8573H1062.492C1062.492 609.8573 1044.8847 611.5902 1049.417 628.84207L1049.4281 628.9087 1084.3873 742.6842 1112.559 627.93118C1112.559 627.90896 1112.559 627.8756 1112.5701 627.8534 1115.6472 610.7682 1098.0844 609.8462 1098.0844 609.8462H1119.5797L1119.6464 609.5351 1119.7352 609.8462H1157.5604C1157.5604 609.8462 1157.3605 609.8684 1157.005 609.92398 1148.418 611.23477 1143.0415 619.9551 1145.563 628.2977L1222.4132 882.8207 1222.602 866.2798 1222.7799 630.7306C1222.7022 611.7457 1203.895 609.8573 1203.895 609.8573L1306.4061 609.8462Z"/>
</clipPath>
<clipPath id="clip_26">
<path transform="matrix(.24,0,0,.24,0,0)" d="M0 0H1562.5V1593.75H0Z"/>
</clipPath>
<clipPath id="clip_27">
<path transform="matrix(.24,0,0,.24,0,0)" d="M0 0H1562.5V1562.5H0Z"/>
</clipPath>
<clipPath id="clip_28">
<path transform="matrix(.24,0,0,.24,0,0)" d="M0 0H1562.5V1562.5H0Z"/>
</clipPath>
<clipPath id="clip_29">
<path transform="matrix(.24,0,0,.24,0,0)" d="M158.69785 369.90898H160.91959V1169.7366H158.69785Z"/>
</clipPath>
<clipPath id="clip_30">
<path transform="matrix(.24,0,0,.24,0,0)" d="M160.36415 369.90898 159.25328 1169.7366V369.90898H160.36415Z"/>
</clipPath>
<clipPath id="clip_31">
<path transform="matrix(.24,0,0,.24,0,0)" d="M0 0H1562.5V1593.75H0Z"/>
</clipPath>
<clipPath id="clip_32">
<path transform="matrix(.24,0,0,.24,0,0)" d="M0 0H1562.5V1562.5H0Z"/>
</clipPath>
<clipPath id="clip_33">
<path transform="matrix(.24,0,0,.24,0,0)" d="M0 0H1562.5V1562.5H0Z"/>
</clipPath>
<clipPath id="clip_34">
<path transform="matrix(.24,0,0,.24,0,0)" d="M1358.4393 369.90898H1360.6611V1169.7366H1358.4393Z"/>
</clipPath>
<clipPath id="clip_35">
<path transform="matrix(.24,0,0,.24,0,0)" d="M1360.1057 369.90898 1358.9949 1169.7366V369.90898H1360.1057Z"/>
</clipPath>
<clipPath id="clip_36">
<path transform="matrix(.24,0,0,.24,0,0)" d="M0 0H1562.5V1593.75H0Z"/>
</clipPath>
<clipPath id="clip_37">
<path transform="matrix(.24,0,0,.24,0,0)" d="M0 0H1562.5V1562.5H0Z"/>
</clipPath>
<clipPath id="clip_38">
<path transform="matrix(.24,0,0,.24,0,0)" d="M0 0H1562.5V1562.5H0Z"/>
</clipPath>
<clipPath id="clip_39">
<path transform="matrix(.24,0,0,.24,0,0)" d="M-.15681839 528.7637H1519.5158V530.98538H-.15681839Z"/>
</clipPath>
<clipPath id="clip_40">
<path transform="matrix(.24,0,0,.24,0,0)" d="M1519.5158 530.42996-.15681839 529.3191H1519.5158V530.42996Z"/>
</clipPath>
<clipPath id="clip_41">
<path transform="matrix(.24,0,0,.24,0,0)" d="M0 0H1562.5V1593.75H0Z"/>
</clipPath>
<clipPath id="clip_42">
<path transform="matrix(.24,0,0,.24,0,0)" d="M0 0H1562.5V1562.5H0Z"/>
</clipPath>
<clipPath id="clip_43">
<path transform="matrix(.24,0,0,.24,0,0)" d="M0 0H1562.5V1562.5H0Z"/>
</clipPath>
<clipPath id="clip_44">
<path transform="matrix(.24,0,0,.24,0,0)" d="M-.15681839 1008.6603H1519.5158V1010.882H-.15681839Z"/>
</clipPath>
<clipPath id="clip_45">
<path transform="matrix(.24,0,0,.24,0,0)" d="M1519.5158 1010.32656-.15681839 1009.2157H1519.5158V1010.32656Z"/>
</clipPath>
<clipPath id="clip_46">
<path transform="matrix(.24,0,0,.24,0,0)" d="M0 0H1562.5V1593.75H0Z"/>
</clipPath>
<clipPath id="clip_47">
<path transform="matrix(.24,0,0,.24,0,0)" d="M0 0H1562.5V1562.5H0Z"/>
</clipPath>
<clipPath id="clip_48">
<path transform="matrix(.24,0,0,.24,0,0)" d="M0 0H1562.5V1562.5H0Z"/>
</clipPath>
<clipPath id="clip_49">
<path transform="matrix(.24,0,0,.24,0,0)" d="M-.15681839 448.78089H1519.5158V451.00263H-.15681839Z"/>
</clipPath>
<clipPath id="clip_50">
<path transform="matrix(.24,0,0,.24,0,0)" d="M1519.5158 450.44718-.15681839 449.3363H1519.5158V450.44718Z"/>
</clipPath>
<clipPath id="clip_51">
<path transform="matrix(.24,0,0,.24,0,0)" d="M0 0H1562.5V1593.75H0Z"/>
</clipPath>
<clipPath id="clip_52">
<path transform="matrix(.24,0,0,.24,0,0)" d="M0 0H1562.5V1562.5H0Z"/>
</clipPath>
<clipPath id="clip_53">
<path transform="matrix(.24,0,0,.24,0,0)" d="M0 0H1562.5V1562.5H0Z"/>
</clipPath>
<clipPath id="clip_54">
<path transform="matrix(.24,0,0,.24,0,0)" d="M-.15681839 1088.6431H1519.5158V1090.8648H-.15681839Z"/>
</clipPath>
<clipPath id="clip_55">
<path transform="matrix(.24,0,0,.24,0,0)" d="M1519.5158 1090.3093-.15681839 1089.1985H1519.5158V1090.3093Z"/>
</clipPath>
<clipPath id="clip_56">
<path transform="matrix(.24,0,0,.24,0,0)" d="M0 0H1562.5V1593.75H0Z"/>
</clipPath>
<clipPath id="clip_57">
<path transform="matrix(.24,0,0,.24,0,0)" d="M0 0H1562.5V1562.5H0Z"/>
</clipPath>
<clipPath id="clip_58">
<path transform="matrix(.24,0,0,.24,0,0)" d="M0 0H1562.5V1562.5H0Z"/>
</clipPath>
<clipPath id="clip_59">
<path transform="matrix(.24,0,0,.24,0,0)" d="M78.71508 369.90898H80.93683V1169.7366H78.71508Z"/>
</clipPath>
<clipPath id="clip_60">
<path transform="matrix(.24,0,0,.24,0,0)" d="M80.38139 369.90898 79.270519 1169.7366V369.90898H80.38139Z"/>
</clipPath>
<clipPath id="clip_61">
<path transform="matrix(.24,0,0,.24,0,0)" d="M0 0H1562.5V1593.75H0Z"/>
</clipPath>
<clipPath id="clip_62">
<path transform="matrix(.24,0,0,.24,0,0)" d="M0 0H1562.5V1562.5H0Z"/>
</clipPath>
<clipPath id="clip_63">
<path transform="matrix(.24,0,0,.24,0,0)" d="M0 0H1562.5V1562.5H0Z"/>
</clipPath>
<clipPath id="clip_64">
<path transform="matrix(.24,0,0,.24,0,0)" d="M1438.4221 369.90898H1440.6439V1169.7366H1438.4221Z"/>
</clipPath>
<clipPath id="clip_65">
<path transform="matrix(.24,0,0,.24,0,0)" d="M1440.0885 369.90898 1438.9776 1169.7366V369.90898H1440.0885Z"/>
</clipPath>
</defs>
<g clip-path="url(#clip_0)">
<path transform="matrix(.75,0,0,.75,0,0)" d="M0 0H500V500H0Z" fill="#ffffff"/>
</g>
<g clip-path="url(#clip_1)">
<g clip-path="url(#clip_2)">
<g clip-path="url(#clip_3)">
<g clip-path="url(#clip_4)">
<g clip-path="url(#clip_5)">
<path transform="matrix(.26660923,0,0,.26660923,-1.3706825,87.44511)" d="M0 0H1378V730H0Z" fill="#ffffff"/>
</g>
</g>
</g>
</g>
</g>
<g clip-path="url(#clip_6)">
<g clip-path="url(#clip_7)">
<g clip-path="url(#clip_8)">
<g clip-path="url(#clip_9)">
<g clip-path="url(#clip_10)">
<path transform="matrix(.26660923,0,0,.26660923,-1.3706825,87.44511)" d="M0 0H1378V730H0Z" fill="#ffffff"/>
</g>
</g>
</g>
</g>
</g>
<g clip-path="url(#clip_11)">
<g clip-path="url(#clip_12)">
<g clip-path="url(#clip_13)">
<g clip-path="url(#clip_14)">
<g clip-path="url(#clip_15)">
<path transform="matrix(.26660923,0,0,.26660923,-1.3706825,87.44511)" d="M0 0H1378V730H0Z"/>
</g>
</g>
</g>
</g>
</g>
<g clip-path="url(#clip_16)">
<g clip-path="url(#clip_17)">
<g clip-path="url(#clip_18)">
<g clip-path="url(#clip_19)">
<g clip-path="url(#clip_20)">
<path transform="matrix(.26660923,0,0,.26660923,-1.3706825,87.44511)" d="M0 0H1378V730H0Z"/>
</g>
</g>
</g>
</g>
</g>
<g clip-path="url(#clip_21)">
<g clip-path="url(#clip_22)">
<g clip-path="url(#clip_23)">
<g clip-path="url(#clip_24)">
<g clip-path="url(#clip_25)">
<path transform="matrix(.26660923,0,0,.26660923,-1.3706825,87.44511)" d="M0 0H1378V730H0Z"/>
</g>
</g>
</g>
</g>
</g>
<g clip-path="url(#clip_26)">
<g clip-path="url(#clip_27)">
<g clip-path="url(#clip_28)">
<g clip-path="url(#clip_29)">
<g clip-path="url(#clip_30)">
<path transform="matrix(.26660923,0,0,.26660923,-1.3706825,87.44511)" d="M0 0H1378V730H0Z" fill="#ffffff"/>
</g>
</g>
</g>
</g>
</g>
<g clip-path="url(#clip_31)">
<g clip-path="url(#clip_32)">
<g clip-path="url(#clip_33)">
<g clip-path="url(#clip_34)">
<g clip-path="url(#clip_35)">
<path transform="matrix(.26660923,0,0,.26660923,-1.3706825,87.44511)" d="M0 0H1378V730H0Z" fill="#ffffff"/>
</g>
</g>
</g>
</g>
</g>
<g clip-path="url(#clip_36)">
<g clip-path="url(#clip_37)">
<g clip-path="url(#clip_38)">
<g clip-path="url(#clip_39)">
<g clip-path="url(#clip_40)">
<path transform="matrix(.26660923,0,0,.26660923,-1.3706825,87.44511)" d="M0 0H1378V730H0Z" fill="#ffffff"/>
</g>
</g>
</g>
</g>
</g>
<g clip-path="url(#clip_41)">
<g clip-path="url(#clip_42)">
<g clip-path="url(#clip_43)">
<g clip-path="url(#clip_44)">
<g clip-path="url(#clip_45)">
<path transform="matrix(.26660923,0,0,.26660923,-1.3706825,87.44511)" d="M0 0H1378V730H0Z" fill="#ffffff"/>
</g>
</g>
</g>
</g>
</g>
<g clip-path="url(#clip_46)">
<g clip-path="url(#clip_47)">
<g clip-path="url(#clip_48)">
<g clip-path="url(#clip_49)">
<g clip-path="url(#clip_50)">
<path transform="matrix(.26660923,0,0,.26660923,-1.3706825,87.44511)" d="M0 0H1378V730H0Z" fill="#ffffff"/>
</g>
</g>
</g>
</g>
</g>
<g clip-path="url(#clip_51)">
<g clip-path="url(#clip_52)">
<g clip-path="url(#clip_53)">
<g clip-path="url(#clip_54)">
<g clip-path="url(#clip_55)">
<path transform="matrix(.26660923,0,0,.26660923,-1.3706825,87.44511)" d="M0 0H1378V730H0Z" fill="#ffffff"/>
</g>
</g>
</g>
</g>
</g>
<g clip-path="url(#clip_56)">
<g clip-path="url(#clip_57)">
<g clip-path="url(#clip_58)">
<g clip-path="url(#clip_59)">
<g clip-path="url(#clip_60)">
<path transform="matrix(.26660923,0,0,.26660923,-1.3706825,87.44511)" d="M0 0H1378V730H0Z" fill="#ffffff"/>
</g>
</g>
</g>
</g>
</g>
<g clip-path="url(#clip_61)">
<g clip-path="url(#clip_62)">
<g clip-path="url(#clip_63)">
<g clip-path="url(#clip_64)">
<g clip-path="url(#clip_65)">
<path transform="matrix(.26660923,0,0,.26660923,-1.3706825,87.44511)" d="M0 0H1378V730H0Z" fill="#ffffff"/>
</g>
</g>
</g>
</g>
</g>
</svg>
