<svg width="425" height="146" viewBox="0 0 425 146" fill="none" xmlns="http://www.w3.org/2000/svg">
<g clip-path="url(#clip0_286_2767)">
<rect width="425" height="146" fill="white"/>
<g clip-path="url(#clip1_286_2767)">
<mask id="mask0_286_2767" style="mask-type:luminance" maskUnits="userSpaceOnUse" x="-37" y="-177" width="500" height="500">
<path d="M-37 -177H463V323H-37V-177Z" fill="white"/>
</mask>
<g mask="url(#mask0_286_2767)">
<path d="M-37 -177H463V323H-37V-177Z" fill="white"/>
</g>
<mask id="mask1_286_2767" style="mask-type:luminance" maskUnits="userSpaceOnUse" x="-37" y="-177" width="500" height="510">
<path d="M-37 -177H463V333H-37V-177Z" fill="white"/>
</mask>
<g mask="url(#mask1_286_2767)">
<mask id="mask2_286_2767" style="mask-type:luminance" maskUnits="userSpaceOnUse" x="-37" y="-177" width="500" height="500">
<path d="M-37 -177H463V323H-37V-177Z" fill="white"/>
</mask>
<g mask="url(#mask2_286_2767)">
<mask id="mask3_286_2767" style="mask-type:luminance" maskUnits="userSpaceOnUse" x="-37" y="-177" width="500" height="500">
<path d="M-37 -177H463V323H-37V-177Z" fill="white"/>
</mask>
<g mask="url(#mask3_286_2767)">
<mask id="mask4_286_2767" style="mask-type:luminance" maskUnits="userSpaceOnUse" x="14" y="17" width="137" height="104">
<path d="M14.1387 17.7988H150.643V120.532H14.1387V17.7988Z" fill="white"/>
</mask>
<g mask="url(#mask4_286_2767)">
<mask id="mask5_286_2767" style="mask-type:luminance" maskUnits="userSpaceOnUse" x="14" y="18" width="137" height="103">
<path d="M100.197 51.4201L107.068 22.3277L115.863 51.4201H100.197ZM142.221 113.089L115.304 24.3326C113.662 18.6271 119.492 18.197 119.492 18.197H106.958L106.929 18.0975L106.908 18.197H100.03C100.03 18.197 105.934 18.5916 104.548 24.4997L104.541 24.5388L95.7247 60.858L84.7013 24.5032C84.6977 24.4961 84.6977 24.4819 84.6941 24.4748C82.9736 18.6911 88.8248 18.1508 88.8248 18.1508H76.2942L76.2657 18.0513L76.2444 18.1508H69.3588C69.3588 18.1508 75.3131 18.4601 73.8947 24.4001L65.1001 60.659L54.059 24.5388C54.0447 24.4961 54.0341 24.4535 54.0199 24.4108L53.9914 24.3077C52.4984 18.7089 58.1576 18.1508 58.1576 18.1508H45.627L45.5986 18.0513L45.5772 18.1508H38.6916C38.6916 18.1508 44.6601 18.4601 43.2417 24.4002L21.8775 113.316C19.2327 118.481 14.1387 120.532 14.1387 120.532H22.5493L45.7336 22.3277L61.6662 75.0346L53.3338 109.946C51.6417 117.603 44.3757 120.532 44.3757 120.532H53.2129L62.9495 79.2897L75.4232 120.532H89.5784C89.5784 120.532 82.2875 117.546 79.9556 109.946L66.3621 64.8465L76.4008 22.3277L106.09 120.532H119.819C119.819 120.532 114.572 118.382 111.561 113.092L96.9866 65.0172L99.8944 52.7069H116.25L136.758 120.532H150.486C150.486 120.532 145.239 118.382 142.225 113.089" fill="white"/>
</mask>
<g mask="url(#mask5_286_2767)">
<path d="M-38.8276 -60.4062H451.022V199.093H-38.8276V-60.4062Z" fill="black"/>
</g>
</g>
</g>
</g>
</g>
<mask id="mask6_286_2767" style="mask-type:luminance" maskUnits="userSpaceOnUse" x="-37" y="-177" width="500" height="510">
<path d="M-37 -177H463V333H-37V-177Z" fill="white"/>
</mask>
<g mask="url(#mask6_286_2767)">
<mask id="mask7_286_2767" style="mask-type:luminance" maskUnits="userSpaceOnUse" x="-37" y="-177" width="500" height="500">
<path d="M-37 -177H463V323H-37V-177Z" fill="white"/>
</mask>
<g mask="url(#mask7_286_2767)">
<mask id="mask8_286_2767" style="mask-type:luminance" maskUnits="userSpaceOnUse" x="-37" y="-177" width="500" height="500">
<path d="M-37 -177H463V323H-37V-177Z" fill="white"/>
</mask>
<g mask="url(#mask8_286_2767)">
<mask id="mask9_286_2767" style="mask-type:luminance" maskUnits="userSpaceOnUse" x="130" y="17" width="52" height="70">
<path d="M130.381 17.7988H181.214V86.7617H130.381V17.7988Z" fill="white"/>
</mask>
<g mask="url(#mask9_286_2767)">
<mask id="mask10_286_2767" style="mask-type:luminance" maskUnits="userSpaceOnUse" x="130" y="18" width="51" height="69">
<path d="M180.923 18.1509C180.368 18.1509 174.922 18.3037 174.922 24.4002V67.303C174.922 77.9531 166.323 86.6197 155.755 86.6197C145.186 86.6197 136.587 77.9531 136.587 67.303V24.4002C136.587 18.3037 131.141 18.1509 130.587 18.1509H144.721C144.166 18.1509 138.72 18.3037 138.72 24.4002V52.0636L139.378 66.9368C139.709 74.4658 145.83 80.3704 153.313 80.3704C161.002 80.3704 167.258 74.0642 167.258 66.3112V24.4002C167.258 18.3037 161.812 18.1509 161.258 18.1509H180.923Z" fill="white"/>
</mask>
<g mask="url(#mask10_286_2767)">
<path d="M-38.8271 -60.4062H451.023V199.093H-38.8271V-60.4062Z" fill="black"/>
</g>
</g>
</g>
</g>
</g>
<mask id="mask11_286_2767" style="mask-type:luminance" maskUnits="userSpaceOnUse" x="-37" y="-177" width="500" height="510">
<path d="M-37 -177H463V333H-37V-177Z" fill="white"/>
</mask>
<g mask="url(#mask11_286_2767)">
<mask id="mask12_286_2767" style="mask-type:luminance" maskUnits="userSpaceOnUse" x="-37" y="-177" width="500" height="500">
<path d="M-37 -177H463V323H-37V-177Z" fill="white"/>
</mask>
<g mask="url(#mask12_286_2767)">
<mask id="mask13_286_2767" style="mask-type:luminance" maskUnits="userSpaceOnUse" x="-37" y="-177" width="500" height="500">
<path d="M-37 -177H463V323H-37V-177Z" fill="white"/>
</mask>
<g mask="url(#mask13_286_2767)">
<mask id="mask14_286_2767" style="mask-type:luminance" maskUnits="userSpaceOnUse" x="149" y="16" width="250" height="122">
<path d="M149.932 16.0215H398.056V137.951H149.932V16.0215Z" fill="white"/>
</mask>
<g mask="url(#mask14_286_2767)">
<mask id="mask15_286_2767" style="mask-type:luminance" maskUnits="userSpaceOnUse" x="150" y="18" width="248" height="118">
<path d="M381.05 18.1508V31.0903C381.05 31.0903 381.043 31.0263 381.029 30.9089C380.545 27.0982 377.282 24.2579 373.454 24.2579H357.006V51.2281H369.835C373.667 51.2281 376.93 48.3878 377.41 44.5771L377.431 44.3923V59.4326C377.431 59.4326 377.424 59.3686 377.41 59.2478C376.927 55.437 373.663 52.5967 369.835 52.5967H357.006V113.984H390.268C394.1 113.984 397.363 111.144 397.843 107.333L397.864 107.149V120.319L358.676 120.415L358.716 120.536H350.995L350.859 120.081L321.305 22.3312L311.266 64.8501L324.941 110.22C325.084 110.856 325.265 111.46 325.485 112.026L325.489 112.033C327.899 118.293 334.479 120.532 334.479 120.532H320.327L320.192 120.077L307.857 79.2825L298.121 120.532H289.283C289.283 120.532 296.549 117.607 298.241 109.946L306.57 75.031L290.638 22.3277L269.952 109.946C267.844 118.876 278.42 120.532 278.42 120.532H252.822C252.822 120.532 259.253 117.287 259.253 109.299V52.7069H236.253V69.6917C238.745 72.1588 240.91 74.9812 242.623 78.2481C258.68 109.8 232.912 136.294 201.146 135.146C179.096 133.657 163.447 123.437 157.895 101.585L157.891 101.571C157.461 99.4346 155.25 89.9113 150.124 89.9113H167.966C167.966 89.9113 162.523 91.5928 161.663 96.3882C161.471 97.4546 161.777 98.5104 161.876 99.5875C163.806 120.525 190.059 137.855 212.084 132.679C238.756 125.79 248.809 95.5812 233.786 72.3649C227.099 62.9092 213.705 57.3353 206.311 55.1597C200.549 53.4641 192.095 51.2637 187.712 46.8664C179.334 39.2094 181.694 25.6159 192.188 20.6072C200.371 16.7005 208.451 17.8736 212.535 21.6167C214.21 23.1844 215.415 24.8765 216.183 26.9987C216.453 27.5923 217.302 30.621 217.58 32.9565H217.587C218.01 37.0623 222.891 38.4522 222.891 38.4522H211.629C213.051 38.4522 216.044 35.1178 216.25 34.5348C216.513 33.7919 216.449 32.9423 216.382 32.1531C214.967 16.2668 192.518 16.4374 189.188 32.21C188.11 37.3111 188.885 41.9146 192.54 45.5654C196.425 49.5361 201.711 51.1606 206.905 52.7638C216.727 56.1409 227.213 61.4375 234.977 68.4795V25.0471C234.977 18.6236 228.93 18.1544 228.93 18.1544H242.303C242.303 18.1544 236.257 18.6271 236.257 25.0471V51.4201H259.256V24.4001C259.256 18.3037 253.81 18.1508 253.256 18.1508H272.924C272.37 18.1508 266.924 18.3037 266.924 24.4001V112.712L288.089 24.4037C289.507 18.4636 283.539 18.1544 283.539 18.1544H290.417L290.439 18.0548L290.467 18.1544H302.998C302.998 18.1544 297.363 18.7089 298.814 24.2295L298.817 24.2508L310.004 60.659L319.019 23.938C319.019 23.9309 319.019 23.9202 319.023 23.9131C320.007 18.4459 314.387 18.1508 314.387 18.1508H321.266L321.287 18.0513L321.316 18.1508H333.42C333.42 18.1508 333.356 18.1579 333.242 18.1757C330.494 18.5952 328.774 21.3857 329.58 24.0553L354.173 105.503L354.233 100.21L354.29 24.8338C354.265 18.7587 348.247 18.1544 348.247 18.1544L381.05 18.1508Z" fill="white"/>
</mask>
<g mask="url(#mask15_286_2767)">
<path d="M-38.8271 -60.4062H451.023V199.093H-38.8271V-60.4062Z" fill="black"/>
</g>
</g>
</g>
</g>
</g>
<mask id="mask16_286_2767" style="mask-type:luminance" maskUnits="userSpaceOnUse" x="-37" y="-177" width="500" height="510">
<path d="M-37 -177H463V333H-37V-177Z" fill="white"/>
</mask>
<g mask="url(#mask16_286_2767)">
<mask id="mask17_286_2767" style="mask-type:luminance" maskUnits="userSpaceOnUse" x="-37" y="-177" width="500" height="500">
<path d="M-37 -177H463V323H-37V-177Z" fill="white"/>
</mask>
<g mask="url(#mask17_286_2767)">
<mask id="mask18_286_2767" style="mask-type:luminance" maskUnits="userSpaceOnUse" x="-37" y="-177" width="500" height="500">
<path d="M-37 -177H463V323H-37V-177Z" fill="white"/>
</mask>
<g mask="url(#mask18_286_2767)">
<mask id="mask19_286_2767" style="mask-type:luminance" maskUnits="userSpaceOnUse" x="13" y="-59" width="2" height="257">
<path d="M13.7832 -58.6289H14.4942V197.316H13.7832V-58.6289Z" fill="white"/>
</mask>
<g mask="url(#mask19_286_2767)">
<mask id="mask20_286_2767" style="mask-type:luminance" maskUnits="userSpaceOnUse" x="13" y="-59" width="2" height="257">
<path d="M14.3164 -58.6289L13.9609 197.316V-58.6289H14.3164Z" fill="white"/>
</mask>
<g mask="url(#mask20_286_2767)">
<path d="M-38.8276 -60.4062H451.022V199.093H-38.8276V-60.4062Z" fill="white"/>
</g>
</g>
</g>
</g>
</g>
<mask id="mask21_286_2767" style="mask-type:luminance" maskUnits="userSpaceOnUse" x="-37" y="-177" width="500" height="510">
<path d="M-37 -177H463V333H-37V-177Z" fill="white"/>
</mask>
<g mask="url(#mask21_286_2767)">
<mask id="mask22_286_2767" style="mask-type:luminance" maskUnits="userSpaceOnUse" x="-37" y="-177" width="500" height="500">
<path d="M-37 -177H463V323H-37V-177Z" fill="white"/>
</mask>
<g mask="url(#mask22_286_2767)">
<mask id="mask23_286_2767" style="mask-type:luminance" maskUnits="userSpaceOnUse" x="-37" y="-177" width="500" height="500">
<path d="M-37 -177H463V323H-37V-177Z" fill="white"/>
</mask>
<g mask="url(#mask23_286_2767)">
<mask id="mask24_286_2767" style="mask-type:luminance" maskUnits="userSpaceOnUse" x="397" y="-59" width="2" height="257">
<path d="M397.7 -58.6289H398.411V197.316H397.7V-58.6289Z" fill="white"/>
</mask>
<g mask="url(#mask24_286_2767)">
<mask id="mask25_286_2767" style="mask-type:luminance" maskUnits="userSpaceOnUse" x="397" y="-59" width="2" height="257">
<path d="M398.233 -58.6289L397.878 197.316V-58.6289H398.233Z" fill="white"/>
</mask>
<g mask="url(#mask25_286_2767)">
<path d="M-38.8281 -60.4062H451.022V199.093H-38.8281V-60.4062Z" fill="white"/>
</g>
</g>
</g>
</g>
</g>
<mask id="mask26_286_2767" style="mask-type:luminance" maskUnits="userSpaceOnUse" x="-37" y="-177" width="500" height="510">
<path d="M-37 -177H463V333H-37V-177Z" fill="white"/>
</mask>
<g mask="url(#mask26_286_2767)">
<mask id="mask27_286_2767" style="mask-type:luminance" maskUnits="userSpaceOnUse" x="-37" y="-177" width="500" height="500">
<path d="M-37 -177H463V323H-37V-177Z" fill="white"/>
</mask>
<g mask="url(#mask27_286_2767)">
<mask id="mask28_286_2767" style="mask-type:luminance" maskUnits="userSpaceOnUse" x="-37" y="-177" width="500" height="500">
<path d="M-37 -177H463V323H-37V-177Z" fill="white"/>
</mask>
<g mask="url(#mask28_286_2767)">
<mask id="mask29_286_2767" style="mask-type:luminance" maskUnits="userSpaceOnUse" x="-38" y="145" width="488" height="2">
<path d="M-37.0503 145.771H449.245V146.482H-37.0503V145.771Z" fill="white"/>
</mask>
<g mask="url(#mask29_286_2767)">
<mask id="mask30_286_2767" style="mask-type:luminance" maskUnits="userSpaceOnUse" x="-38" y="145" width="488" height="2">
<path d="M449.245 146.305L-37.0503 145.949H449.245V146.305Z" fill="white"/>
</mask>
<g mask="url(#mask30_286_2767)">
<path d="M-38.8276 -60.4062H451.022V199.093H-38.8276V-60.4062Z" fill="white"/>
</g>
</g>
</g>
</g>
</g>
<mask id="mask31_286_2767" style="mask-type:luminance" maskUnits="userSpaceOnUse" x="-37" y="-177" width="500" height="510">
<path d="M-37 -177H463V333H-37V-177Z" fill="white"/>
</mask>
<g mask="url(#mask31_286_2767)">
<mask id="mask32_286_2767" style="mask-type:luminance" maskUnits="userSpaceOnUse" x="-37" y="-177" width="500" height="500">
<path d="M-37 -177H463V323H-37V-177Z" fill="white"/>
</mask>
<g mask="url(#mask32_286_2767)">
<mask id="mask33_286_2767" style="mask-type:luminance" maskUnits="userSpaceOnUse" x="-37" y="-22" width="500" height="345">
<path d="M-37 -22H463V323H-37V-22Z" fill="white"/>
</mask>
<g mask="url(#mask33_286_2767)">
<mask id="mask34_286_2767" style="mask-type:luminance" maskUnits="userSpaceOnUse" x="423" y="-59" width="2" height="257">
<path d="M423.295 -58.6289H424.006V197.316H423.295V-58.6289Z" fill="white"/>
</mask>
<g mask="url(#mask34_286_2767)">
<mask id="mask35_286_2767" style="mask-type:luminance" maskUnits="userSpaceOnUse" x="423" y="-59" width="1" height="257">
<path d="M423.828 -58.6289L423.473 197.316V-58.6289H423.828Z" fill="white"/>
</mask>
<g mask="url(#mask35_286_2767)">
<path d="M-38.8276 -60.4062H451.022V199.093H-38.8276V-60.4062Z" fill="white"/>
</g>
</g>
</g>
</g>
</g>
</g>
</g>
<defs>
<clipPath id="clip0_286_2767">
<rect width="425" height="146" fill="white"/>
</clipPath>
<clipPath id="clip1_286_2767">
<rect width="500" height="500" fill="white" transform="translate(-37 -177)"/>
</clipPath>
</defs>
</svg>
