<svg width="25" height="25" viewBox="0 0 25 25" fill="none" xmlns="http://www.w3.org/2000/svg">
<g clip-path="url(#clip0_875_1516)">
<mask id="mask0_875_1516" style="mask-type:alpha" maskUnits="userSpaceOnUse" x="0" y="0" width="25" height="25">
<rect width="25" height="25" fill="#D9D9D9"/>
</mask>
<g mask="url(#mask0_875_1516)">
<path d="M12.5 20.4734L11.7107 19.7603C10.0107 18.2071 8.60443 16.8777 7.49198 15.7719C6.37953 14.6661 5.50146 13.6909 4.85776 12.8462C4.21406 12.0015 3.76435 11.2373 3.50862 10.5535C3.25287 9.86977 3.125 9.18201 3.125 8.49023C3.125 7.16544 3.57505 6.053 4.47516 5.15289C5.37526 4.25279 6.48771 3.80273 7.8125 3.80273C8.72863 3.80273 9.588 4.03711 10.3906 4.50586C11.1932 4.97461 11.8964 5.65636 12.5 6.55112C13.1036 5.65636 13.8068 4.97461 14.6094 4.50586C15.412 4.03711 16.2714 3.80273 17.1875 3.80273C18.5123 3.80273 19.6247 4.25279 20.5248 5.15289C21.4249 6.053 21.875 7.16544 21.875 8.49023C21.875 9.18201 21.7471 9.86977 21.4914 10.5535C21.2357 11.2373 20.7859 12.0015 20.1422 12.8462C19.4985 13.6909 18.6238 14.6661 17.518 15.7719C16.4123 16.8777 15.0027 18.2071 13.2893 19.7603L12.5 20.4734ZM12.5 19.0632C14.1667 17.5567 15.5382 16.2663 16.6146 15.192C17.691 14.1176 18.5417 13.1854 19.1667 12.3955C19.7917 11.6056 20.2257 10.9058 20.4687 10.2961C20.7118 9.68648 20.8333 9.08452 20.8333 8.49023C20.8333 7.44857 20.4861 6.58051 19.7917 5.88607C19.0972 5.19162 18.2292 4.8444 17.1875 4.8444C16.3582 4.8444 15.593 5.08111 14.8918 5.55453C14.1907 6.02795 13.563 6.74076 13.0088 7.69297H11.9912C11.4236 6.72741 10.7926 6.01127 10.0982 5.54453C9.40371 5.07778 8.64182 4.8444 7.8125 4.8444C6.78418 4.8444 5.91947 5.19162 5.21836 5.88607C4.51723 6.58051 4.16667 7.44857 4.16667 8.49023C4.16667 9.08452 4.28819 9.68648 4.53125 10.2961C4.77431 10.9058 5.20833 11.6056 5.83333 12.3955C6.45833 13.1854 7.30903 14.1142 8.38542 15.182C9.46181 16.2497 10.8333 17.5434 12.5 19.0632Z" fill="black"/>
</g>
</g>
<defs>
<clipPath id="clip0_875_1516">
<rect width="25" height="25" fill="white"/>
</clipPath>
</defs>
</svg>
